<?xml version="1.0" encoding="utf-8" ?><svg xmlns="http://www.w3.org/2000/svg" xmlns:xlink="http://www.w3.org/1999/xlink" width="1024" height="1024" viewBox="0 0 1024 1024"><path fill="#FEFEFD" d="M310.083 386.146C304.4 388.403 299.584 392.466 292.996 394.576C285.293 397.231 274.791 397.756 267.564 393.436C250.853 383.445 243.09 362.898 253.294 345.384C261.209 331.8 271.962 327.857 286.035 322.616C289.628 321.277 294.924 321.125 298.753 321.187C311.408 323.067 328.974 325.263 340.746 329.134C347.433 331.401 353.894 334.285 360.046 337.749C391.84 355.679 403.265 379.975 412.662 413.312C432.758 408.105 456.187 404.346 476.6 400.99C533.875 391.576 594.127 384.286 652.204 385.735C680.721 386.747 735.219 391.481 754.147 414.876C804.01 476.505 699.192 569.714 660.744 604.763C668.726 609.498 681.635 615.749 687.442 622.697C695.856 632.972 698.024 655.18 681.22 658.499C674.17 659.891 665.135 659.547 657.832 660.897C656.998 661.051 652.27 660.094 651.118 659.869C648.505 658.952 647.001 658.517 644.331 657.872C646.238 659.221 648.828 661.173 650.783 662.315C660.35 669.072 669.447 678.448 671.986 690.287C679.721 726.349 646.418 763.248 610.308 763.6C585.95 763.838 560.654 757.711 555.053 730.562C551.593 713.98 556.601 702.244 565.517 688.267C537.802 684.254 501.077 686.43 473.923 692.622C474.332 711.379 473.534 720.935 461.645 737.124C451.761 750.583 433.755 761.845 417.036 763.492C403.312 764.845 382.355 762.243 370.99 753.122C362.3 746.147 356.305 736.728 355.589 725.262C355.341 722.877 356.421 716.228 355.331 714.212C339.152 684.274 337.839 643.544 352.779 612.893C355.028 608.279 359.308 602.916 362.868 598.426C361.46 588.417 359.061 575.723 358.474 565.852C357.084 542.482 356.58 519.139 355.047 495.75C353.326 469.481 352.341 441.552 342.162 416.88C336.291 402.647 324.208 391.916 310.083 386.146ZM434.528 575.814C463.677 572.232 490.237 570.845 519.594 574.218C524.826 574.819 530.097 575.017 535.345 575.753C534.715 570.284 535.044 561.536 535.191 555.822C533.324 557.147 531.737 558.345 529.712 559.435C526.288 559.511 524.859 559.556 521.443 559.08C519.613 560.423 518.393 561.387 516.362 562.451C498.455 563.092 499.389 553.105 499.293 538.856C496.708 548.429 494.242 554.829 482.889 552.388C477.546 556.827 470.427 559.744 465.185 553.462C459.661 546.843 460.748 536.823 460.924 528.728C449.687 528.829 436.947 531.16 427.209 527.276C427.489 541.061 431.367 562.434 434.528 575.814ZM418.461 443.59C418.963 447.684 419.499 453.159 420.367 457.054C423.808 456.133 427.277 455.318 430.768 454.608C437.977 453.61 445.75 451.867 453.119 450.67C460.686 449.441 469.746 448.678 477.073 447.23C477.855 445.156 478.625 442.964 479.555 440.962C477.114 440.963 468.244 440.848 466.261 441.223C461.026 441.794 455.311 441.733 450.004 441.945C439.484 442.38 428.969 442.928 418.461 443.59ZM624.871 560.181C620.423 569.728 614.255 578.267 609.547 587.462C613.617 588.963 618.8 590.686 623.12 591.122L638.276 567.681C633.833 565.018 629.582 562.355 624.871 560.181ZM423.435 485.314C423.578 492.081 424.358 500.372 425.209 507.148C430.272 503.467 437.012 500.952 442.833 498.459C447.446 496.58 464.264 490.52 467.145 487.944L467.371 486.945C465.179 484.435 444.763 485.021 440.495 485.228C434.81 485.411 429.121 485.44 423.435 485.314Z"/><path fill="#FC4F00" d="M435.618 421.38C445.792 418.239 462.31 416.429 473.371 414.428C535.273 403.23 675.251 384.187 730.374 413.268C740.575 418.649 750.01 426.979 753.405 438.349C758.995 457.075 749.846 478.91 740.915 495.202C721.539 530.543 690.579 559.504 661.649 586.923C658.331 589.743 653.621 593.506 649.683 595.36L648.824 595.274L649.871 593.527C649.233 593.084 647.816 592.524 647.045 592.183C644.429 594.106 642.212 595.732 639.454 597.457C640.717 596.13 642.499 594.617 643.054 593.041L642.777 592.669C640.38 594.995 636.344 597.638 633.503 599.628C640.505 589.315 649.419 573.807 655.841 562.824C650.469 559.082 644.907 555.619 639.179 552.449C634.118 549.803 628.676 547.212 623.529 544.673L621.022 543.472C617.643 548.263 609.676 560.676 607.284 565.976C602.896 573.018 598.01 580.919 593.111 587.628C593.812 585.552 595.305 581.56 595.807 579.596C595.803 577.372 595.566 578.426 596.736 576.365C596.726 574.567 596.05 575.005 595.937 573.653L595.986 573.708C595.622 575.351 594.882 576.333 593.317 576.9L591.122 579.883C589.593 582.275 587.447 584.688 585.612 586.897C587.068 583.655 590.711 576.315 589.85 573.141C586.099 579.44 581.101 586.515 576.95 592.676C582.931 574.966 592.052 553.632 599.197 536.233C592.746 533.986 584.831 531.867 578.186 529.919C575.225 535.912 572.801 541.388 570.158 547.535C568.169 546.402 567.567 546.112 565.401 545.388L565.279 543.723C564.245 544.111 563.474 546.324 562.981 547.449C560.357 553.077 557.404 559.867 554.612 565.307L554.971 560.601C553.93 559.309 554.414 559.65 553.035 558.879L551.632 559.905C550.308 562.391 548.373 567.372 547.215 570.138C548.871 553.53 551.556 542.078 556.168 525.934C549.171 524.658 542.163 523.447 535.144 522.301C534.385 524.344 533.602 526.602 532.792 528.603C530.794 534.486 528.846 540.386 526.948 546.301C527.066 542.207 527.415 538.284 527.553 534.322C526.938 533.892 527.277 534.2 526.701 533.241C527.288 531.907 527.1 531.618 526.91 530.165C525.733 530.268 525.538 533.683 523.444 535.145L519.957 543.853C520.161 541.248 521.732 526.393 521.156 525.076C518.446 533.422 515.142 542.007 512.308 550.715C512.907 540.58 514.543 529.908 516.332 519.931C508.418 518.961 500.484 518.164 492.535 517.541L491.851 519.783C491.155 522.491 490.476 525.367 489.649 528.025C487.767 525.716 488.044 525.043 487.905 521.974L487.86 516.018C486.515 518.449 486.134 519.286 485.238 521.913C483.235 519.123 482.769 522.622 481.608 516.747L481.002 517.085L480.775 517.962C477.885 525.764 475.454 535.84 473.784 543.967C473.228 537.385 474.186 523.738 474.558 516.678C460.281 516.099 449.707 516.099 435.613 516.531C438.274 515.254 442.581 513.941 445.639 512.648L444.818 511.799C447.605 508.922 472.167 501.637 477.207 500.013C478.26 492.539 481.38 480.825 483.192 473.209C464.87 471.901 449.868 471.576 431.636 471.57C429.605 471.397 428.957 471.455 427.121 470.687C431.319 469.81 434.536 469.065 438.64 467.864C437.271 467.466 436.961 467.521 435.541 467.707L434.809 467.081C437.137 465.551 459.548 462.354 463.487 461.796C467.195 456.637 475.889 458.919 481.579 459.546C483.179 459.579 485.036 459.412 486.66 459.311C488.839 454.364 490.526 448.203 492.438 443.008C494.438 437.573 496.572 432.214 498.51 426.767L444.962 429.52C431.907 430.119 417.31 430.567 404.363 431.849L404.297 431.497C410.113 429.839 415.075 429.577 421.468 427.333L421.247 426.805C419.411 426.239 414.1 426.463 411.862 426.484C413.918 425.894 415.458 425.619 417.571 425.232C423.551 423.902 429.599 422.486 435.618 421.38Z"/><path fill="#521404" d="M436.82 426.182C448.085 425.37 460.127 425.134 471.5 424.69C482.815 424.248 494.988 423.225 506.185 423.028C501.438 435.15 497.921 446.696 493.425 458.385C491.161 458.721 488.938 459.07 486.66 459.311C488.839 454.364 490.526 448.203 492.438 443.008C494.438 437.573 496.572 432.214 498.51 426.767L444.962 429.52C431.907 430.119 417.31 430.567 404.363 431.849L404.297 431.497C410.113 429.839 415.075 429.577 421.468 427.333L423.125 427.029C426.218 427.091 433.701 426.491 436.82 426.182Z"/><path fill="#521404" d="M639.91 545.067C648.058 549.517 656.047 554.253 663.861 559.265C661.125 564.418 655.357 574.263 651.987 579.26C653.268 581.712 653.678 581.785 655.718 583.497L656.046 583.765L658.687 581.458L658.965 581.59C658.51 582.305 658.05 583.017 657.587 583.726C658.701 584.769 660.309 586.529 661.649 586.923C658.331 589.743 653.621 593.506 649.683 595.36L648.824 595.274L649.871 593.527C649.233 593.084 647.816 592.524 647.045 592.183C644.429 594.106 642.212 595.732 639.454 597.457C640.717 596.13 642.499 594.617 643.054 593.041L642.777 592.669C640.38 594.995 636.344 597.638 633.503 599.628C640.505 589.315 649.419 573.807 655.841 562.824C650.469 559.082 644.907 555.619 639.179 552.449C639.065 549.539 639.408 547.939 639.91 545.067Z"/><path fill="#C1521C" d="M656.046 583.765L658.687 581.458L658.965 581.59C658.51 582.305 658.05 583.017 657.587 583.726C658.701 584.769 660.309 586.529 661.649 586.923C658.331 589.743 653.621 593.506 649.683 595.36L648.824 595.274L649.871 593.527C649.233 593.084 647.816 592.524 647.045 592.183C649.029 590.058 653.691 586.009 656.046 583.765Z"/><path fill="#F8C597" d="M656.046 583.765L658.687 581.458L658.965 581.59C658.51 582.305 658.05 583.017 657.587 583.726C656.231 585.573 651.309 592.737 649.871 593.527C649.233 593.084 647.816 592.524 647.045 592.183C649.029 590.058 653.691 586.009 656.046 583.765Z"/><path fill="#D05821" d="M642.777 592.669C646.224 588.119 648.942 584.049 651.987 579.26C653.268 581.712 653.678 581.785 655.718 583.497L656.046 583.765C653.691 586.009 649.029 590.058 647.045 592.183C644.429 594.106 642.212 595.732 639.454 597.457C640.717 596.13 642.499 594.617 643.054 593.041L642.777 592.669Z"/><path fill="#521404" d="M580.809 525.002C589.82 527.271 598.573 529.414 607.309 532.614C602.329 544.679 596.952 556.738 592.24 568.871C591.546 570.035 590.304 571.97 589.85 573.141C586.099 579.44 581.101 586.515 576.95 592.676C582.931 574.966 592.052 553.632 599.197 536.233C592.746 533.986 584.831 531.867 578.186 529.919L580.809 525.002Z"/><path fill="#521404" d="M535.144 522.301C535.661 520.946 536.356 518.935 536.938 517.659C545.851 518.884 555.352 520.605 564.012 521.722C562.045 528.816 559.886 536.379 558.162 543.519C559.368 547.481 559.588 545.496 562.981 547.449C560.357 553.077 557.404 559.867 554.612 565.307L554.971 560.601C553.93 559.309 554.414 559.65 553.035 558.879L551.632 559.905C550.308 562.391 548.373 567.372 547.215 570.138C548.871 553.53 551.556 542.078 556.168 525.934C549.171 524.658 542.163 523.447 535.144 522.301Z"/><path fill="#D05821" d="M556.751 548.877C557.206 547.087 557.676 545.301 558.162 543.519C559.368 547.481 559.588 545.496 562.981 547.449C560.357 553.077 557.404 559.867 554.612 565.307L554.971 560.601C555.578 557.239 557.028 552.006 556.751 548.877Z"/><path fill="#EDE1CA" d="M556.751 548.877C557.028 552.006 555.578 557.239 554.971 560.601C553.93 559.309 554.414 559.65 553.035 558.879L551.632 559.905C553.419 556.267 555.126 552.59 556.751 548.877Z"/><path fill="#521404" d="M438.64 467.864C454.284 467.343 475.076 467.251 490.495 469.715L483.662 498.662C481.892 499.117 478.918 500.018 477.207 500.013C478.26 492.539 481.38 480.825 483.192 473.209C464.87 471.901 449.868 471.576 431.636 471.57C429.605 471.397 428.957 471.455 427.121 470.687C431.319 469.81 434.536 469.065 438.64 467.864Z"/><defs><linearGradient id="gradient_0" gradientUnits="userSpaceOnUse" x1="460.59677" y1="510.39639" x2="456.88235" y2="535.93793"><stop offset="0" stop-color="#5F1200"/><stop offset="1" stop-color="#2E241D"/></linearGradient></defs><path fill="url(#gradient_0)" d="M445.639 512.648C458.521 511.675 469.075 512.176 481.932 512.565L481.002 517.085L480.775 517.962C477.885 525.764 475.454 535.84 473.784 543.967C473.228 537.385 474.186 523.738 474.558 516.678C460.281 516.099 449.707 516.099 435.613 516.531C438.274 515.254 442.581 513.941 445.639 512.648Z"/><path fill="#521404" d="M493.837 513.385C504.97 513.468 512.153 514.512 523.166 516.305C522.709 518.224 521.926 522.01 521.197 523.676L521.156 525.076C518.446 533.422 515.142 542.007 512.308 550.715C512.907 540.58 514.543 529.908 516.332 519.931C508.418 518.961 500.484 518.164 492.535 517.541L493.837 513.385Z"/><path fill="#470C03" d="M629.864 540.47C633.154 541.937 636.723 543.45 639.91 545.067C639.408 547.939 639.065 549.539 639.179 552.449C634.118 549.803 628.676 547.212 623.529 544.673L623.801 543.853C626.854 542.788 627.582 542.928 629.864 540.47Z"/><path fill="#C1521C" d="M527.304 523.879L528.591 521.52L529.041 521.481C529.045 522.639 529.018 523.797 528.963 524.954C528.637 526.852 528.05 533.376 527.553 534.322C526.938 533.892 527.277 534.2 526.701 533.241C527.288 531.907 527.1 531.618 526.91 530.165C525.733 530.268 525.538 533.683 523.444 535.145L519.957 543.853C520.161 541.248 521.732 526.393 521.156 525.076L521.197 523.676C523.355 523.628 525.182 523.476 527.304 523.879Z"/><path fill="#EDE1CA" d="M527.304 523.879L528.591 521.52L529.041 521.481C529.045 522.639 529.018 523.797 528.963 524.954C528.637 526.852 528.05 533.376 527.553 534.322C526.938 533.892 527.277 534.2 526.701 533.241C527.288 531.907 527.1 531.618 526.91 530.165C525.733 530.268 525.538 533.683 523.444 535.145C524.503 531.61 526.134 527.679 527.304 523.879Z"/><path fill="#C1521C" d="M600.29 566.629C604.188 568.193 603.771 567.916 607.284 565.976C602.896 573.018 598.01 580.919 593.111 587.628C593.812 585.552 595.305 581.56 595.807 579.596C597.614 575.737 599.001 570.764 600.29 566.629Z"/><path fill="#D05821" d="M417.571 425.232C423.551 423.902 429.599 422.486 435.618 421.38C433.026 423.283 429.003 423.287 425.702 425.057L425.65 425.598C429.923 426.236 432.772 424.77 436.82 426.182C433.701 426.491 426.218 427.091 423.125 427.029L421.468 427.333L421.247 426.805C419.411 426.239 414.1 426.463 411.862 426.484C413.918 425.894 415.458 425.619 417.571 425.232Z"/><path fill="#978882" d="M411.862 426.484C413.918 425.894 415.458 425.619 417.571 425.232C420.26 426.779 421.059 425.466 423.125 427.029L421.468 427.333L421.247 426.805C419.411 426.239 414.1 426.463 411.862 426.484Z"/><path fill="#C1521C" d="M487.408 513.952L488.351 513.903C490.06 516.457 489.611 517.866 491.851 519.783C491.155 522.491 490.476 525.367 489.649 528.025C487.767 525.716 488.044 525.043 487.905 521.974L487.86 516.018L487.408 513.952Z"/><path fill="#AB5929" d="M528.963 524.954L529.015 525.399C529.258 527.634 528.796 534.753 529.079 535.283C530.578 532.773 531.213 529.132 532.792 528.603C530.794 534.486 528.846 540.386 526.948 546.301C527.066 542.207 527.415 538.284 527.553 534.322C528.05 533.376 528.637 526.852 528.963 524.954Z"/><path fill="#F8C597" d="M593.317 576.9C593.46 575.458 599.32 565.998 600.59 564.372L600.983 564.389L600.29 566.629C599.001 570.764 597.614 575.737 595.807 579.596C595.803 577.372 595.566 578.426 596.736 576.365C596.726 574.567 596.05 575.005 595.937 573.653L595.986 573.708C595.622 575.351 594.882 576.333 593.317 576.9Z"/><path fill="#521404" d="M624.54 538.331L629.864 540.47C627.582 542.928 626.854 542.788 623.801 543.853L623.529 544.673L621.022 543.472L624.54 538.331Z"/><path fill="#D05821" d="M592.24 568.871C594.015 573.958 589.03 575.476 591.122 579.883C589.593 582.275 587.447 584.688 585.612 586.897C587.068 583.655 590.711 576.315 589.85 573.141C590.304 571.97 591.546 570.035 592.24 568.871Z"/><path fill="#EDE1CA" d="M463.487 461.796C467.195 456.637 475.889 458.919 481.579 459.546C475.452 460.277 469.596 460.802 463.487 461.796Z"/><path fill="#D05821" d="M481.608 516.747L482.59 516.091C485.674 516.156 485.71 516.495 487.408 513.952L487.86 516.018C486.515 518.449 486.134 519.286 485.238 521.913C483.235 519.123 482.769 522.622 481.608 516.747Z"/><path fill="#FEFEFD" d="M655.242 496.521C668.78 500.019 680.351 503.605 693.637 507.887C688.852 517.084 684.442 525.288 679.049 534.142C677.845 533.621 675.694 532.781 674.7 532.1C670.255 530.799 662.212 526.594 657.489 524.702C651.407 522.266 645.212 519.977 639.176 517.504C642.382 512.071 646.99 506.027 650.965 501.114C652.411 499.602 653.837 498.071 655.242 496.521Z"/><path fill="#521404" d="M655.242 496.521C668.78 500.019 680.351 503.605 693.637 507.887C688.852 517.084 684.442 525.288 679.049 534.142C677.845 533.621 675.694 532.781 674.7 532.1C678.239 525.379 681.858 518.701 685.557 512.068C674.614 507.851 662.294 504.42 650.965 501.114C652.411 499.602 653.837 498.071 655.242 496.521Z"/><path fill="#FEFEFD" d="M531.634 426.121C533.413 423.678 534.006 422.736 537.282 422.442C546.432 421.621 557.735 421.556 566.911 421.751C559.06 432.994 552.353 445.172 545.902 457.26C544.641 459.623 542.102 459.341 539.773 458.63C534.066 457.977 521.251 457.988 514.988 457.827C519.162 447.077 525.824 436.191 531.634 426.121Z"/><path fill="#521404" d="M531.634 426.121C533.413 423.678 534.006 422.736 537.282 422.442C546.432 421.621 557.735 421.556 566.911 421.751C559.06 432.994 552.353 445.172 545.902 457.26C544.641 459.623 542.102 459.341 539.773 458.63C543.375 450.268 553.932 433.584 559.041 425.997C549.905 425.911 540.769 425.952 531.634 426.121Z"/><path fill="#FEFEFD" d="M647.335 426.447C655.351 427.676 663.326 428.371 671.363 429.69C660.258 443.72 652.128 454.938 641.95 469.575L637.102 468.798L616.237 465.199C622.48 455.116 635.234 440.215 643.009 431.045C644.449 429.458 645.795 427.944 647.335 426.447Z"/><path fill="#521404" d="M647.335 426.447C655.351 427.676 663.326 428.371 671.363 429.69C660.258 443.72 652.128 454.938 641.95 469.575L637.102 468.798C643.429 458.644 655.675 443.897 663.381 434.177C656.975 432.878 649.554 431.974 643.009 431.045C644.449 429.458 645.795 427.944 647.335 426.447Z"/><path fill="#FEFEFD" d="M593.267 422.388C601.897 422.387 610.168 423.116 618.77 423.623C612.572 431.362 606.714 439.368 601.213 447.617C598.23 452.07 595.472 456.745 592.333 461.081C591.126 462.749 588.525 462.232 586.641 462.111C579.852 461.463 573.057 460.869 566.257 460.33C570.392 452.075 583.615 433.959 589.348 426.563C590.934 424.589 591.372 424.001 593.267 422.388Z"/><path fill="#521404" d="M593.267 422.388C601.897 422.387 610.168 423.116 618.77 423.623C612.572 431.362 606.714 439.368 601.213 447.617C598.23 452.07 595.472 456.745 592.333 461.081C591.126 462.749 588.525 462.232 586.641 462.111C594.398 449.741 601.771 439.4 610.526 427.726C603.557 427.4 596.271 427.158 589.348 426.563C590.934 424.589 591.372 424.001 593.267 422.388Z"/><path fill="#FEFEFD" d="M508.836 470.655C518.513 471.304 528.147 472.482 537.695 474.183C535.099 481.227 532.557 488.305 529.834 495.297C528.784 497.993 525.74 496.857 523.502 496.306C516.767 495.808 505.595 496.649 498.731 497.043C501.043 489.415 503.589 482.876 506.488 475.442L508.836 470.655Z"/><path fill="#521404" d="M508.836 470.655C518.513 471.304 528.147 472.482 537.695 474.183C535.099 481.227 532.557 488.305 529.834 495.297C528.784 497.993 525.74 496.857 523.502 496.306C525.834 490.916 528.371 483.721 530.524 478.145C522.677 477.077 514.391 476.299 506.488 475.442L508.836 470.655Z"/><path fill="#FEFEFD" d="M696.523 450.585L703.069 444.332C709.117 458.112 707.429 469.495 704.124 483.943L697.632 482.394C694.881 482.125 676.306 476.716 672.802 475.639C680.208 466.827 688.129 458.461 696.523 450.585Z"/><path fill="#521404" d="M696.523 450.585L703.069 444.332C709.117 458.112 707.429 469.495 704.124 483.943L697.632 482.394C700.501 470.566 700.967 461.902 696.523 450.585Z"/><path fill="#FEFEFD" d="M604.191 483.477C612.808 485.565 621.445 487.57 630.101 489.488C626.18 496.209 621.698 504.103 618.309 511.109C616.634 510.662 614.634 510.227 613.08 509.546C606.016 507.61 598.415 506.053 591.245 504.557C594.297 499.138 597.728 493.555 600.923 488.187L604.191 483.477Z"/><path fill="#521404" d="M604.191 483.477C612.808 485.565 621.445 487.57 630.101 489.488C626.18 496.209 621.698 504.103 618.309 511.109C616.634 510.662 614.634 510.227 613.08 509.546C615.59 504.266 618.807 498.799 621.718 493.7C614.82 491.738 607.887 489.9 600.923 488.187L604.191 483.477Z"/><path fill="#FEFEFD" d="M557.109 475.31C564.603 476.53 574.58 477.928 581.848 479.63C578.39 486.936 575.068 494.306 571.884 501.736L566.383 500.77C560.351 499.751 551.426 498.931 545.203 498.32C547.959 492.303 551.031 485.938 554.418 480.257C555.3 478.482 556.113 477.024 557.109 475.31Z"/><path fill="#521404" d="M557.109 475.31C564.603 476.53 574.58 477.928 581.848 479.63C578.39 486.936 575.068 494.306 571.884 501.736L566.383 500.77C568.249 495.87 571.92 488.677 574.365 484.059C567.489 482.447 561.402 481.413 554.418 480.257C555.3 478.482 556.113 477.024 557.109 475.31Z"/><path fill="#FC4F00" d="M277.391 341.156C293.448 332.233 295.823 333.952 313.383 336.63C333.926 339.764 349.618 343.669 366.217 357.037C385.588 372.638 392.528 390.377 399.517 413.229C400.2 415.463 403.219 430.548 404.297 431.497L404.363 431.849C403.787 434.021 407.753 460.431 408.333 465.163C413.241 505.144 412.366 553.945 425.268 592.048C483.893 575.208 609.48 592.32 664.823 621.138C671.545 624.968 679.001 629.794 680.957 637.824C681.497 640.042 681.676 641.704 680.667 643.772C677.656 649.939 668.746 644.732 665.663 645.691C662.598 648.332 661.837 648.823 657.775 648.363C645.895 645.848 633.369 641.375 621.258 638.47C579.522 628.459 535.85 619.114 492.707 620.448C484.016 620.717 474.758 622.468 466.306 624.175C461.511 625.907 455.772 627.27 451.211 629.267C429.234 638.891 417.586 649.45 404.216 668.583C460.443 638.166 546.02 639.75 606.442 656.675C617.112 659.664 630.223 664.688 639.012 671.41C625.333 671.472 620.594 672.242 608.093 678.751C607.331 677.035 606.242 676.853 604.466 676.066C603 676.011 601.286 675.838 599.884 676.146C598.502 677.01 597.063 677.673 596.255 679.023C593.389 679.29 580.852 676.99 577.126 676.385C550.912 672.129 526.004 672.439 499.595 674.693C491.186 676.024 482.82 677.608 474.506 679.443C469.753 680.499 463.094 682.153 458.252 683.53C457.841 683.355 457.43 683.181 457.019 683.006L455.931 684.817C460.379 694.223 460.876 703.233 457.336 713.112C452.534 726.586 442.499 737.554 429.504 743.531C413.608 750.792 395.511 748.705 387.142 731.526C385.078 730.372 384.545 726.976 385.068 724.728L384.665 724.309L384.07 725.225L384.31 726.003C384.947 728.157 385.932 732.686 385.602 734.868L384.937 735.083C378.215 726.351 377.652 717.426 379.989 706.959C380.228 705.46 380.43 705.119 379.936 703.692C378.67 703.984 378.803 704.386 377.808 705.826C376.288 705.368 376.028 705.047 374.748 704.123C374.554 703.759 373.639 702.587 373.341 702.186C371.541 705.239 370.527 707.546 369.081 710.799C358.995 697.392 354.251 672.093 355.744 655.657C357.774 633.321 360.878 618.734 377.691 603.833C369.738 570.358 371.416 529.741 369.115 495.331C367.428 470.118 364.72 432.278 353.877 409.119C349.945 400.638 344.345 393.036 337.412 386.766C329.059 379.335 317.654 372.474 306.096 373.148C302.947 374.727 297.664 377.593 294.58 378.845C266.567 395.956 248.895 354.187 277.391 341.156Z"/><path fill="#FC4F00" d="M387.142 731.526L386.794 730.174C376.726 692.108 432.24 654.747 455.931 684.817C460.379 694.223 460.876 703.233 457.336 713.112C452.534 726.586 442.499 737.554 429.504 743.531C413.608 750.792 395.511 748.705 387.142 731.526Z"/><defs><linearGradient id="gradient_1" gradientUnits="userSpaceOnUse" x1="434.43356" y1="711.94769" x2="401.55557" y2="711.60889"><stop offset="0" stop-color="#F9ECD8"/><stop offset="1" stop-color="white"/></linearGradient></defs><path fill="url(#gradient_1)" d="M408.569 731.291C383.336 718.585 420.385 677.256 433.661 700.453C442.687 715.363 426.222 734.504 408.569 731.291Z"/><path fill="#D05821" d="M410.649 728.897C419.406 725.178 428.103 716.937 429.314 707.148C429.801 703.209 429.187 700.694 428.335 696.927C430.841 700.216 432.308 702.122 433.654 706.031L434.471 705.831L434.729 705.057C434.202 703.251 433.982 702.305 433.661 700.453C442.687 715.363 426.222 734.504 408.569 731.291C409.328 729.756 409.219 729.812 410.649 728.897Z"/><path fill="#EDE1CA" d="M433.661 700.453C442.687 715.363 426.222 734.504 408.569 731.291C409.328 729.756 409.219 729.812 410.649 728.897C412.236 729.481 413.319 729.309 414.955 729.203C425.897 728.495 434.56 716.374 433.654 706.031L434.471 705.831L434.729 705.057C434.202 703.251 433.982 702.305 433.661 700.453Z"/><path fill="#521404" d="M418.075 696.726C432.758 694.435 426.308 711.675 420.654 718.392L418.898 719.87L418.491 719.702C422.207 710.24 423.392 706.726 417.691 697.677L418.075 696.726Z"/><path fill="#521404" d="M311.565 368.668C326.382 369.283 338.682 375.092 348.543 386.222C353.644 391.979 359.526 399.639 362.114 406.971C382.649 465.151 373.807 528.802 382.771 588.92C383.378 592.992 384.428 597.177 385.431 601.17C362.12 618.257 359.392 663.572 367.915 688.933C369.187 692.72 370.841 699.233 373.341 702.186C371.541 705.239 370.527 707.546 369.081 710.799C358.995 697.392 354.251 672.093 355.744 655.657C357.774 633.321 360.878 618.734 377.691 603.833C369.738 570.358 371.416 529.741 369.115 495.331C367.428 470.118 364.72 432.278 353.877 409.119C349.945 400.638 344.345 393.036 337.412 386.766C329.059 379.335 317.654 372.474 306.096 373.148L305.988 372.568C308.173 370.449 308.888 370.145 311.565 368.668Z"/><path fill="#521404" d="M466.306 624.175C471.32 621.459 481.19 620.353 486.951 619.409C520.662 613.885 554.593 619.012 587.884 625.46C607.932 629.333 627.796 634.103 647.416 639.756C650.819 640.768 654.21 641.817 657.59 642.903C657.045 645.675 657.11 645.715 657.775 648.363C645.895 645.848 633.369 641.375 621.258 638.47C579.522 628.459 535.85 619.114 492.707 620.448C484.016 620.717 474.758 622.468 466.306 624.175Z"/><path fill="#521404" d="M277.391 341.156L277.088 341.77C276.036 343.855 274.216 345.901 273.012 347.988C267.051 358.315 271.466 372.367 282.282 377.447C286.906 379.619 289.797 379.222 294.58 378.845C266.567 395.956 248.895 354.187 277.391 341.156Z"/><path fill="#EDE1CA" d="M383.79 712.365L384.003 711.563C388.044 697.049 397.813 684.801 411.064 677.633C421.086 672.12 432.518 669.075 443.707 672.671C448.661 674.263 454.499 678.362 457.019 683.006L455.931 684.817C432.24 654.747 376.726 692.108 386.794 730.174L387.142 731.526C385.078 730.372 384.545 726.976 385.068 724.728L384.665 724.309L384.07 725.225L384.31 726.003C384.947 728.157 385.932 732.686 385.602 734.868C382.466 728.506 382.843 719.179 383.79 712.365Z"/><path fill="#470C03" d="M499.595 674.693L499.495 674.222C522.017 670.491 547.557 670.336 570.289 672.1C579.718 672.832 590.439 674.881 599.884 676.146C598.502 677.01 597.063 677.673 596.255 679.023C593.389 679.29 580.852 676.99 577.126 676.385C550.912 672.129 526.004 672.439 499.595 674.693Z"/><path fill="#AB5929" d="M379.989 706.959C380.941 712.258 378.284 720.89 381.155 725.376L382.098 725.772L382.56 725.469L382.132 720.607C381.979 718.714 382.767 713.875 383.195 711.91L383.79 712.365C382.843 719.179 382.466 728.506 385.602 734.868L384.937 735.083C378.215 726.351 377.652 717.426 379.989 706.959Z"/><path fill="#470C03" d="M657.59 642.903C660.357 643.75 663.019 644.496 665.663 645.691C662.598 648.332 661.837 648.823 657.775 648.363C657.11 645.715 657.045 645.675 657.59 642.903Z"/><path fill="#F8C597" d="M405.093 673.882L405.669 674.363C404.336 676.072 401.2 677.899 399.281 679.176L398.755 679.037C399.806 676.753 402.962 675.063 405.093 673.882Z"/><path fill="#FC4F00" d="M639.012 671.41L639.44 671.854C636.996 672.415 633.877 672.025 630.485 672.648L630.905 672.527L630.723 672.794C632.26 673.147 633.815 673.463 635.315 673.935C663.805 680.19 662.73 705.739 649.476 725.819C645.05 732.524 639.404 737.148 632.666 741.337C618.051 750.94 591.586 750.416 585.632 730.517L585.314 729.971C583.011 728.156 584.809 727.56 582.801 725.554C582.558 728.35 585.262 731.351 584.074 734.163C584.577 735.559 584.77 735.4 584.587 736.638C581.599 734.325 579.081 730.175 578.247 726.515C573.977 707.782 583.771 692.849 597.096 681.128L596.255 679.023C597.063 677.673 598.502 677.01 599.884 676.146C601.286 675.838 603 676.011 604.466 676.066C606.242 676.853 607.331 677.035 608.093 678.751C620.594 672.242 625.333 671.472 639.012 671.41Z"/><path fill="#D05821" d="M604.466 676.066C606.242 676.853 607.331 677.035 608.093 678.751C595.062 687.592 585.292 698.12 582.266 714.174C580.944 720.873 581.571 727.81 584.074 734.163C584.577 735.559 584.77 735.4 584.587 736.638C581.599 734.325 579.081 730.175 578.247 726.515C573.977 707.782 583.771 692.849 597.096 681.128L596.255 679.023C597.063 677.673 598.502 677.01 599.884 676.146C601.286 675.838 603 676.011 604.466 676.066Z"/><path fill="#EDE1CA" d="M599.884 676.146C601.286 675.838 603 676.011 604.466 676.066C601.37 677.935 599.912 678.865 597.096 681.128L596.255 679.023C597.063 677.673 598.502 677.01 599.884 676.146Z"/><path fill="#EDE1CA" d="M639.012 671.41L639.44 671.854C636.996 672.415 633.877 672.025 630.485 672.648L630.905 672.527L630.723 672.794C632.26 673.147 633.815 673.463 635.315 673.935C620.923 673.671 609.62 679.315 599.096 689.037C595.784 692.097 588.065 701.586 587.691 705.84C584.04 712.652 583.408 722.554 585.314 729.971C583.011 728.156 584.809 727.56 582.801 725.554C582.558 728.35 585.262 731.351 584.074 734.163C581.571 727.81 580.944 720.873 582.266 714.174C585.292 698.12 595.062 687.592 608.093 678.751C620.594 672.242 625.333 671.472 639.012 671.41Z"/><path fill="#D05821" d="M585.314 729.971C583.408 722.554 584.04 712.652 587.691 705.84C587.582 707.249 586.901 712.214 586.684 713.769C586.192 717.31 586.706 728.604 585.632 730.517L585.314 729.971Z"/><defs><linearGradient id="gradient_2" gradientUnits="userSpaceOnUse" x1="630.98871" y1="717.63879" x2="602.20654" y2="708.2619"><stop offset="0" stop-color="#F5E4CC"/><stop offset="1" stop-color="white"/></linearGradient></defs><path fill="url(#gradient_2)" d="M617.846 694.064C640.682 691.735 639.295 723.692 615.393 731.786C591.376 734.548 594.908 701.307 617.846 694.064Z"/><path fill="#D05821" d="M626.669 698.282C639.716 706.965 626.758 726.2 613.235 729.519C611.74 729.676 611.39 729.845 609.974 729.35C610.752 728.101 614.436 726.291 616.225 724.874C618.721 722.89 620.911 720.547 622.722 717.922C627.3 711.285 628.112 705.885 626.669 698.282Z"/><path fill="#521404" d="M616.959 696.493C630.702 696.271 623.924 711.383 619.391 717.99L617.849 719.392L617.464 719.237C618.238 716.792 619.224 713.858 619.614 711.371C620.223 707.488 619.458 702.65 616.985 699.511C616.284 698.621 616.243 698.664 615.759 697.523L616.959 696.493Z"/><defs><linearGradient id="gradient_3" gradientUnits="userSpaceOnUse" x1="569.77856" y1="723.90503" x2="587.45435" y2="720.35779"><stop offset="0" stop-color="#561E0A"/><stop offset="1" stop-color="#3E271F"/></linearGradient></defs><path fill="url(#gradient_3)" d="M582.738 691.512C582.784 692.788 580.005 696.258 579.325 697.863C572.885 713.079 571.079 733.217 587.597 742.919C589.886 744.263 592.503 745.078 594.62 746.754C593.826 747.426 592.759 747.019 591.329 746.902C566.741 742.323 564.737 719.512 575.349 700.872C577.327 697.396 580.084 694.5 582.738 691.512Z"/><path fill="#521404" d="M374.748 704.123C376.028 705.047 376.288 705.368 377.808 705.826C373.433 719.309 377.004 734.958 389.61 742.522C392.538 744.28 395.491 745.759 398.408 747.551C373.163 744.439 364.876 726.364 374.748 704.123Z"/><path fill="#D05821" d="M565.401 545.388C567.567 546.112 568.169 546.402 570.158 547.535C569.63 549.381 562.902 564.08 562.024 565.717C563.279 559.044 564.154 552.171 565.401 545.388Z"/><path fill="#C1521C" d="M481.608 516.747C482.769 522.622 483.235 519.123 485.238 521.913C483.456 526.995 482.091 532.132 480.645 537.316C480.326 532.484 482.103 520.46 480.775 517.962L481.002 517.085L481.608 516.747Z"/><path fill="#AB5929" d="M487.905 521.974C488.044 525.043 487.767 525.716 489.649 528.025C489.125 531.288 487.22 537.417 486.22 540.613C486.898 534.42 487.098 528.125 487.905 521.974Z"/><path fill="#494445" d="M421.327 472.004C423.526 471.355 424.857 471.08 427.121 470.687C428.957 471.455 429.605 471.397 431.636 471.57C428.276 472.117 424.744 471.996 421.327 472.004Z"/><path fill="#C4822A" fill-opacity="0.011764706" d="M644.331 657.872C647.001 658.517 648.505 658.952 651.118 659.869L651.195 660.528C652.544 661.201 652.869 661.044 653.327 662.101L653.084 662.179L652.46 661.852L651.767 662.577L651.275 662.297L650.783 662.315C648.828 661.173 646.238 659.221 644.331 657.872Z"/></svg>