<svg xmlns="http://www.w3.org/2000/svg" viewBox="-6.4 -12.8 140.8 172.8" x="0px" y="0px"><path d="m90.82,17.68h-53.64c-13.44,0-24.38,15.31-24.38,34.13v56.07c0,.97.58,1.85,1.47,2.24.89.39,1.93.2,2.64-.46l5.04-4.76,5.04,4.76c.94.89,2.41.89,3.35,0l5.03-4.75,5.03,4.75c.94.89,2.41.89,3.35,0l5.02-4.75,5.02,4.75c.94.89,2.41.89,3.35,0l5.03-4.75,5.03,4.75c.46.44,1.06.67,1.68.67.33,0,.65-.06.96-.2.9-.38,1.47-1.26,1.47-2.24v-21.94h19.5c13.44,0,24.38-15.31,24.38-34.13s-10.94-34.13-24.38-34.13Zm-24.38,84.54l-2.59-2.45c-.94-.89-2.41-.89-3.35,0l-5.03,4.75-5.02-4.75c-.94-.89-2.41-.89-3.35,0l-5.03,4.75-5.03-4.75c-.94-.89-2.41-.89-3.35,0l-5.03,4.75-5.04-4.76c-.47-.44-1.07-.66-1.67-.66s-1.2.22-1.67.66l-2.6,2.46v-50.42c0-16.13,8.75-29.26,19.5-29.26h41.04c-.33.28-.63.6-.95.9-.05.04-.09.09-.14.13-2.44,2.31-4.6,5.2-6.32,8.66-1.88,3.79-3.17,8.02-3.84,12.48-.03.2-.05.4-.08.6-.11.83-.2,1.66-.27,2.51-.02.27-.05.54-.07.81-.07,1.05-.11,2.11-.11,3.17v50.41Zm4.88-21.16v-8.86c1.9,3.56,4.28,6.57,7.01,8.86h-7.01Zm19.5,0c-10.75,0-19.5-13.12-19.5-29.26,0-1.41.09-2.8.22-4.18.03-.29.05-.58.09-.86.16-1.36.37-2.71.66-4.02.02-.1.05-.19.07-.29.65-2.85,1.59-5.56,2.83-8.05,2.74-5.52,6.68-9.38,11.02-11,.06-.02.12-.05.19-.07.62-.22,1.26-.39,1.9-.51.11-.02.22-.06.34-.08.73-.13,1.46-.2,2.19-.2,10.75,0,19.5,13.12,19.5,29.26s-8.75,29.26-19.5,29.26Z"/><path d="m90.82,39.62c-5.38,0-9.75,5.47-9.75,12.19s4.37,12.19,9.75,12.19,9.75-5.47,9.75-12.19-4.37-12.19-9.75-12.19Zm0,19.5c-2.64,0-4.88-3.35-4.88-7.31s2.23-7.31,4.88-7.31,4.88,3.35,4.88,7.31-2.23,7.31-4.88,7.31Z"/><text x="0.0" y="150.4" font-size="6.4" font-weight="bold" font-family="Arbeit Regular, Helvetica, Arial-Unicode, Arial, Sans-serif" fill="#000000">Created by Abstracto Create</text><text x="0.0" y="156.8" font-size="6.4" font-weight="bold" font-family="Arbeit Regular, Helvetica, Arial-Unicode, Arial, Sans-serif" fill="#000000">from Noun Project</text></svg>